<?xml version="1.0" encoding="utf-8"?>
<svg xmlns="http://www.w3.org/2000/svg" viewBox="0 0 1024 1024" role="img" aria-labelledby="title desc">
  <title id="title">TraceLine</title>
  <desc id="desc">A brand logo concept for a text comparison app that compares two text blocks line by line.</desc>
  <g transform="matrix(2.56, 0, 0, 2.56, -143.359985, -143.360001)">
    <rect x="56" y="56" width="400" height="400" rx="100" fill="#ffffff"/>
    <path d="M156 116h112c32 0 58 26 58 58v222H156c-32 0-58-26-58-58V174c0-32 26-58 58-58z" fill="#eff6ff" stroke="#2563eb" stroke-width="12"/>
    <path d="M244 116h112c32 0 58 26 58 58v164c0 32-26 58-58 58H244V116z" fill="#ecfdf5" stroke="#10b981" stroke-width="12"/>
    <path d="M148 196h72M148 250h96M148 304h54M286 196h84M286 250h56M286 304h92" stroke="#334155" stroke-width="16" stroke-linecap="round"/>
  </g>
</svg>